<svg width="20" height="19" viewBox="0 0 20 19" fill="none" xmlns="http://www.w3.org/2000/svg">
<g clip-path="url(#clip0_1823_16005)">
<path d="M16.8586 8.17619C16.8586 13.4706 10.0543 18.0086 10.0543 18.0086C10.0543 18.0086 3.25 13.4706 3.25 8.17619C3.25 6.37084 3.96688 4.63945 5.24293 3.36288C6.51898 2.08631 8.24968 1.36914 10.0543 1.36914C11.8589 1.36914 13.5896 2.08631 14.8656 3.36288C16.1417 4.63945 16.8586 6.37084 16.8586 8.17619Z" fill="#C88C32" stroke="white" stroke-linecap="round" stroke-linejoin="round"/>
<path d="M10.0533 10.4462C11.3059 10.4462 12.3214 9.43036 12.3214 8.17722C12.3214 6.92408 11.3059 5.9082 10.0533 5.9082C8.80062 5.9082 7.78516 6.92408 7.78516 8.17722C7.78516 9.43036 8.80062 10.4462 10.0533 10.4462Z" fill="white"/>
</g>
<defs>
<clipPath id="clip0_1823_16005">
<rect width="18.1448" height="18.1521" fill="white" transform="translate(0.980469 0.613281)"/>
</clipPath>
</defs>
</svg>
